<svg xmlns='http://www.w3.org/2000/svg'  width='400' height='400' viewBox='0 0 800 800'>
<rect fill='#FFFFFF' width='800' height='800'/>
<g fill='none' stroke='#D6E6FF'  stroke-width='2.2'>
<path d='M769 229L1037 260.9M927 880L731 737 520 660 309 538 40 599 295 764 126.5 879.5 40 599-197 493 102 382-31 229 126.5 79.5-69-63'/>
<path d='M-31 229L237 261 390 382 603 493 308.5 537.5 101.5 381.5M370 905L295 764'/>
<path d='M520 660L578 842 731 737 840 599 603 493 520 660 295 764 309 538 390 382 539 269 769 229 577.5 41.5 370 105 295 -36 126.5 79.5 237 261 102 382 40 599 -69 737 127 880'/>
<path d='M520-140L578.5 42.5 731-63M603 493L539 269 237 261 370 105M902 382L539 269M390 382L102 382'/>
<path d='M-222 42L126.5 79.5 370 105 539 269 577.5 41.5 927 80 769 229 902 382 603 493 731 737M295-36L577.5 41.5M578 842L295 764M40-201L127 80M102 382L-261 269'/>
</g>
<g  fill='#0000C2'>
<circle  cx='769' cy='229' r='5'/>
<g transform="translate(90.5,12) ">
    <path fill="#d22f27" d="M52.5733,29.11c0-9.3149-7.1338-16.8923-15.9034-16.8923S20.7665,19.795,20.7665,29.114c.0027.4653.2238,11.6088,12.9612,31.2452a3.4626,3.4626,0,0,0,2.8174,1.9343c1.8394,0,3.0941-2.0266,3.2162-2.2327C52.58,40.4135,52.58,29.5534,52.5733,29.11ZM36.67,35.9135a7.0826,7.0826,0,1,1,7.0826-7.0826A7.0907,7.0907,0,0,1,36.67,35.9135Z"/>
    <path fill="#ea5a47" d="M52.5733,29.11c0-9.3149-7.1338-16.8923-15.9034-16.8923a14.96,14.96,0,0,0-3.8645.5254c8.3948.4493,15.0989,7.8225,15.0989,16.849.0068.4436.0068,11.3036-12.812,30.9509a5.8543,5.8543,0,0,1-.5865.7972,2.8549,2.8549,0,0,0,2.0393.9534c1.8394,0,3.0941-2.0266,3.2162-2.2327C52.58,40.4135,52.58,29.5534,52.5733,29.11Z"/>
    <path fill="none" stroke="#000" stroke-linecap="round" stroke-linejoin="round" stroke-width="2" d="M36.5451,62.2935a3.4628,3.4628,0,0,1-2.8174-1.9343C20.99,40.7228,20.7692,29.5793,20.7665,29.114c0-9.3191,7.1337-16.8964,15.9034-16.8964S52.5733,19.7949,52.5733,29.11c.0068.4436.0068,11.3036-12.812,30.9509C39.6392,60.2669,38.3845,62.2935,36.5451,62.2935Z"/>
    <path fill="none" stroke="#000" stroke-linecap="round" stroke-linejoin="round" stroke-width="2" d="M36.67,35.9135a7.0826,7.0826,0,1,1,7.0827-7.0826A7.0906,7.0906,0,0,1,36.67,35.9135Z"/>
</g>
<g transform="translate(502.5,201.5) ">
    <path fill="#d22f27" d="M52.5733,29.11c0-9.3149-7.1338-16.8923-15.9034-16.8923S20.7665,19.795,20.7665,29.114c.0027.4653.2238,11.6088,12.9612,31.2452a3.4626,3.4626,0,0,0,2.8174,1.9343c1.8394,0,3.0941-2.0266,3.2162-2.2327C52.58,40.4135,52.58,29.5534,52.5733,29.11ZM36.67,35.9135a7.0826,7.0826,0,1,1,7.0826-7.0826A7.0907,7.0907,0,0,1,36.67,35.9135Z"/>
    <path fill="#ea5a47" d="M52.5733,29.11c0-9.3149-7.1338-16.8923-15.9034-16.8923a14.96,14.96,0,0,0-3.8645.5254c8.3948.4493,15.0989,7.8225,15.0989,16.849.0068.4436.0068,11.3036-12.812,30.9509a5.8543,5.8543,0,0,1-.5865.7972,2.8549,2.8549,0,0,0,2.0393.9534c1.8394,0,3.0941-2.0266,3.2162-2.2327C52.58,40.4135,52.58,29.5534,52.5733,29.11Z"/>
    <path fill="none" stroke="#000" stroke-linecap="round" stroke-linejoin="round" stroke-width="2" d="M36.5451,62.2935a3.4628,3.4628,0,0,1-2.8174-1.9343C20.99,40.7228,20.7692,29.5793,20.7665,29.114c0-9.3191,7.1337-16.8964,15.9034-16.8964S52.5733,19.7949,52.5733,29.11c.0068.4436.0068,11.3036-12.812,30.9509C39.6392,60.2669,38.3845,62.2935,36.5451,62.2935Z"/>
    <path fill="none" stroke="#000" stroke-linecap="round" stroke-linejoin="round" stroke-width="2" d="M36.67,35.9135a7.0826,7.0826,0,1,1,7.0827-7.0826A7.0906,7.0906,0,0,1,36.67,35.9135Z"/>
</g>
<g transform="translate(272,470) ">
    <path fill="#d22f27" d="M52.5733,29.11c0-9.3149-7.1338-16.8923-15.9034-16.8923S20.7665,19.795,20.7665,29.114c.0027.4653.2238,11.6088,12.9612,31.2452a3.4626,3.4626,0,0,0,2.8174,1.9343c1.8394,0,3.0941-2.0266,3.2162-2.2327C52.58,40.4135,52.58,29.5534,52.5733,29.11ZM36.67,35.9135a7.0826,7.0826,0,1,1,7.0826-7.0826A7.0907,7.0907,0,0,1,36.67,35.9135Z"/>
    <path fill="#ea5a47" d="M52.5733,29.11c0-9.3149-7.1338-16.8923-15.9034-16.8923a14.96,14.96,0,0,0-3.8645.5254c8.3948.4493,15.0989,7.8225,15.0989,16.849.0068.4436.0068,11.3036-12.812,30.9509a5.8543,5.8543,0,0,1-.5865.7972,2.8549,2.8549,0,0,0,2.0393.9534c1.8394,0,3.0941-2.0266,3.2162-2.2327C52.58,40.4135,52.58,29.5534,52.5733,29.11Z"/>
    <path fill="none" stroke="#000" stroke-linecap="round" stroke-linejoin="round" stroke-width="2" d="M36.5451,62.2935a3.4628,3.4628,0,0,1-2.8174-1.9343C20.99,40.7228,20.7692,29.5793,20.7665,29.114c0-9.3191,7.1337-16.8964,15.9034-16.8964S52.5733,19.7949,52.5733,29.11c.0068.4436.0068,11.3036-12.812,30.9509C39.6392,60.2669,38.3845,62.2935,36.5451,62.2935Z"/>
    <path fill="none" stroke="#000" stroke-linecap="round" stroke-linejoin="round" stroke-width="2" d="M36.67,35.9135a7.0826,7.0826,0,1,1,7.0827-7.0826A7.0906,7.0906,0,0,1,36.67,35.9135Z"/>
</g>
<circle  cx='539' cy='269' r='5'/>
<circle  cx='603' cy='493' r='5'/>
<circle  cx='731' cy='737' r='5'/>
<circle  cx='520' cy='660' r='5'/>
<circle  cx='309' cy='538' r='5'/>
<circle  cx='295' cy='764' r='5'/>
<circle  cx='40' cy='599' r='5'/>
<circle  cx='102' cy='382' r='5'/>
<circle  cx='127' cy='80' r='5'/>
<circle  cx='370' cy='105' r='5'/>
<circle  cx='578' cy='42' r='5'/>
<circle  cx='237' cy='261' r='5'/>
<circle  cx='390' cy='382' r='5'/>
</g>
</svg>